<svg
    xmlns="http://www.w3.org/2000/svg"
    viewBox="0 0 512 512"
    id="vector">
    <path
        id="path"
        d="M 400 512 L 112 512 C 50.1 512 0 461.9 0 400 L 0 112 C 0 50.1 50.1 0 112 0 L 400 0 C 461.9 0 512 50.1 512 112 L 512 400 C 512 461.9 461.9 512 400 512 Z"
        fill="#41479b"/>
    <path
        id="path_1"
        d="M 512 400 L 512 375.4 L 432.6 323.4 L 512 323.4 L 512 296.5 L 296.4 296.5 L 296.4 512 L 323.3 512 L 323.3 348.5 L 494.3 460.5 C 500.4 451.1 505 440.7 508.1 429.6"
        fill="#f5f5f5"/>
    <path
        id="path_2"
        d="M 7.5 440.4 C 10.2 447.4 13.6 454.1 17.7 460.4 L 188.6 348.4 L 188.6 512 L 215.5 512 L 215.5 296.4 L 0 296.4 L 0 323.3 L 79.4 323.3 L 0 375.4 L 0 400 C 0 404.3 0.3 408.6 0.7 412.7"
        fill="#f5f5f5"/>
    <path
        id="path_3"
        d="M 0 115.8 L 0 136.6 L 79.4 188.6 L 0 188.6 L 0 215.5 L 215.6 215.5 L 215.6 0 L 188.7 0 L 188.7 163.5 L 17.7 51.5 C 11.1 61.9 6.1 73.4 3.1 85.7"
        fill="#f5f5f5"/>
    <path
        id="path_4"
        d="M 504.3 71.2 C 501.6 64.3 498.2 57.7 494.3 51.6 L 323.4 163.5 L 323.4 0 L 296.5 0 L 296.5 215.6 L 512 215.6 L 512 188.7 L 432.6 188.7 L 512 136.6 L 512 112 C 512 107.5 511.7 103.1 511.2 98.8"
        fill="#f5f5f5"/>
    <path
        id="path_5"
        d="M 296.4 0 L 215.6 0 L 215.6 215.6 L 0 215.6 L 0 296.4 L 215.6 296.4 L 215.6 512 L 296.4 512 L 296.4 296.4 L 512 296.4 L 512 215.6 L 296.4 215.6 Z"
        fill="#ff4b55"/>
    <path
        id="path_6"
        d="M 138.4 323.4 L 0.7 412.7 C 1.8 422.4 4.1 431.7 7.5 440.4 L 187.9 323.3 L 138.4 323.3 L 138.4 323.4 L 138.4 323.4 Z"
        fill="#ff4b55"/>
    <path
        id="path_7"
        d="M 344.5 323.4 L 508.1 429.6 C 510.6 420.1 512 410.2 512 400 L 512 400 L 394 323.4 L 344.5 323.4 L 344.5 323.4 Z"
        fill="#ff4b55"/>
    <path
        id="path_8"
        d="M 161.7 188.6 L 3.1 85.7 C 1.1 94.1 0 102.9 0 112 L 0 115.8 L 112.2 188.6 L 161.7 188.6 L 161.7 188.6 Z"
        fill="#ff4b55"/>
    <path
        id="path_9"
        d="M 372.9 188.6 L 511.3 98.8 C 510.2 89.2 507.8 79.9 504.4 71.2 L 323.4 188.6 L 372.9 188.6 Z"
        fill="#ff4b55"/>
</svg>
