<svg
    xmlns="http://www.w3.org/2000/svg"
    viewBox="0 0 512 512"
    id="vector">
    <path
        id="path"
        d="M 4.3 81 C 1.5 90.8 0 101.2 0 112 L 0 161.8 L 512 161.8 L 512 112 C 512 101.3 510.5 90.9 507.7 81 L 4.3 81 Z"
        fill="#f5f5f5"/>
    <path
        id="path_1"
        d="M 0 400 C 0 410.7 1.5 421.1 4.3 431 L 507.6 431 C 510.4 421.2 511.9 410.8 511.9 400 L 511.9 350.2 L 0 350.2 L 0 400 Z"
        fill="#f5f5f5"/>
    <path
        id="path_2"
        d="M 104.2 511.7 L 407.8 511.7 C 455.4 508.4 494.9 475.3 507.6 430.9 L 4.3 430.9 C 17.1 475.4 56.5 508.4 104.2 511.7 Z"
        fill="#ff4b55"/>
    <path
        id="path_3"
        d="M 407.8 0.3 L 104.2 0.3 C 56.6 3.6 17.1 36.7 4.4 81.1 L 507.7 81.1 C 494.9 36.6 455.5 3.6 407.8 0.3 Z"
        fill="#ff4b55"/>
    <path
        id="path_4"
        d="M 0 161.8 L 512 161.8 L 512 350.2 L 0 350.2 Z"
        fill="#41479b"/>
</svg>
