<?xml version="1.0" encoding="iso-8859-1"?>
<!-- Generator: Adobe Illustrator 19.0.0, SVG Export Plug-In . SVG Version: 6.00 Build 0)  -->
<svg version="1.1" id="Capa_1" xmlns="http://www.w3.org/2000/svg" xmlns:xlink="http://www.w3.org/1999/xlink" x="0px" y="0px"
	 viewBox="0 0 512 512" style="enable-background:new 0 0 512 512;" xml:space="preserve">
<path style="fill:#82DCE6;" d="M512,256c0,141.385-114.615,256-256,256S0,397.385,0,256S114.615,0,256,0S512,114.615,512,256z"/>
<path style="fill:#AFF0F5;" d="M150,75c0-8.284,6.716-15,15-15h80V45c0-8.284,6.716-15,15-15h75c8.284,0,15,6.716,15,15
	s-6.716,15-15,15h-50c-8.284,0-15,6.716-15,15s6.716,15,15,15h90c8.284,0,15,6.716,15,15s-6.716,15-15,15H240
	c-8.284,0-15-6.716-15-15V90h-60C156.716,90,150,83.284,150,75z M335,200h-90c-8.284,0-15-6.716-15-15s6.716-15,15-15h50
	c8.284,0,15-6.716,15-15s-6.716-15-15-15h-75c-8.284,0-15,6.716-15,15v15h-80c-8.284,0-15,6.716-15,15s6.716,15,15,15h60v15
	c0,8.284,6.716,15,15,15h135c8.284,0,15-6.716,15-15S343.284,200,335,200z M503.393,190H475c-8.284,0-15-6.716-15-15s6.716-15,15-15
	h18.372c-4.191-10.354-9.037-20.371-14.492-30H450c-8.284,0-15,6.716-15,15v15h-80c-8.284,0-15,6.716-15,15s6.716,15,15,15h60v15
	c0,8.284,6.716,15,15,15h79.468C508.032,209.794,505.997,199.782,503.393,190z"/>
<path style="fill:#D29650;" d="M310,118.773V401H45.016c-4.725-6.862-9.116-13.971-13.167-21.294h0.515v-22.708v-20.482v-110.87
	c0-2.705-2.193-4.898-4.898-4.898H2.428c9.124-66.211,43.557-124.341,93.235-164.307l206.803,52.641
	C306.898,110.21,310,114.201,310,118.773z"/>
<path style="fill:#B9783D;" d="M313.233,111.816c2.216,0.564,3.767,2.559,3.767,4.846v13.224c0,3.266-3.081,5.656-6.244,4.843
	L75.72,74.336c6.337-6.296,12.975-12.289,19.943-17.895L313.233,111.816z"/>
<path style="fill:#41465F;" d="M230,171v230H45.016c-4.725-6.862-9.116-13.971-13.167-21.294h0.515v-22.708v-20.482v-110.87
	c0-2.705-2.193-4.898-4.898-4.898H2.417c3.38-24.528,10.226-47.95,20.042-69.748H210C221.046,151,230,159.954,230,171z"/>
<path style="fill:#323750;" d="M230,161v240h-29.5V180.5H11.323c3.118-10.115,6.842-19.963,11.137-29.5H220
	C225.523,151,230,155.477,230,161z"/>
<path style="fill:#41465F;" d="M497.882,340C463.116,440.122,367.959,512,256,512c-96.514,0-180.536-53.418-224.155-132.294h0.519
	v-22.708V340H497.882z"/>
<path style="fill:#1E233C;" d="M195,385.227C195,404.432,179.432,420,160.227,420s-34.773-15.568-34.773-34.773
	c0-19.204,15.568-34.773,34.773-34.773S195,366.023,195,385.227z M309.77,350.455c-19.204,0-34.773,15.568-34.773,34.773
	c0,19.204,15.568,34.773,34.773,34.773c19.205,0,34.773-15.568,34.773-34.773C344.542,366.023,328.974,350.455,309.77,350.455z"/>
<path style="fill:#F7D139;" d="M326.364,337.273v44.091h-293.6c-9.529-16.932-17.191-35.053-22.699-54.091h306.298
	C321.886,327.273,326.364,331.75,326.364,337.273z"/>
<path style="fill:#FFEB50;" d="M326.364,224.091v134.091H21.227C7.584,326.879,0,292.328,0,256c0-12.536,0.918-24.855,2.659-36.909
	h318.705C324.125,219.091,326.364,221.329,326.364,224.091z"/>
<path style="fill:#F7D139;" d="M285,280H135c-2.761,0-5-2.239-5-5v-20c0-2.761,2.239-5,5-5h150c2.761,0,5,2.239,5,5v20
	C290,277.761,287.761,280,285,280z"/>
<path style="fill:#D9593F;" d="M440,381.364H321.001c-5.523,0-10-4.477-10-10v-34.091c0-5.523,4.477-10,10-10H440
	c5.523,0,10,4.477,10,10v34.091C450,376.886,445.523,381.364,440,381.364z"/>
<path style="fill:#FF6E55;" d="M370,234.545h-49.091c-5.523,0-10,4.477-10,10v113.636H450v-43.636
	C450,270.363,414.183,234.545,370,234.545z M335,340h-10c-2.761,0-5-2.239-5-5s2.239-5,5-5h10c2.761,0,5,2.239,5,5
	S337.761,340,335,340z"/>
<path style="fill:#FFEB50;" d="M435,310h14.863c0.084,1.505,0.137,3.019,0.137,4.545V340h-15c-8.284,0-15-6.716-15-15
	S426.716,310,435,310z"/>
<path style="fill:#4B556E;" d="M450,319.545h-69.545c-17.071,0-30.909-13.838-30.909-30.909v-54.091h38.636
	c34.141,0,61.818,27.677,61.818,61.818V319.545z"/>
<path style="fill:#5A6482;" d="M450,296.364v23.182h-29.545v-23.182c0-34.141-27.677-61.818-61.818-61.818h29.546
	C422.323,234.545,450,262.222,450,296.364z"/>
<path style="fill:#788CAA;" d="M99.545,385.227c0,19.204-15.568,34.773-34.773,34.773S30,404.432,30,385.227
	c0-19.204,15.568-34.773,34.773-34.773S99.545,366.023,99.545,385.227z M198.864,350.455c-19.205,0-34.773,15.568-34.773,34.773
	c0,19.204,15.568,34.773,34.773,34.773c19.204,0,34.772-15.568,34.772-34.773C233.636,366.023,218.068,350.455,198.864,350.455z
	 M348.406,350.455c-19.205,0-34.773,15.568-34.773,34.773c0,19.204,15.568,34.773,34.773,34.773
	c19.204,0,34.773-15.568,34.773-34.773C383.179,366.023,367.61,350.455,348.406,350.455z"/>
<path style="fill:#B4C8E1;" d="M214.318,385.227c0,8.535-6.919,15.455-15.454,15.455c-8.535,0-15.455-6.919-15.455-15.455
	c0-8.535,6.919-15.455,15.455-15.455C207.399,369.773,214.318,376.692,214.318,385.227z M64.773,369.773
	c-8.535,0-15.455,6.919-15.455,15.455c0,8.535,6.919,15.455,15.455,15.455s15.455-6.919,15.455-15.455
	C80.227,376.692,73.308,369.773,64.773,369.773z M348.406,369.773c-8.535,0-15.455,6.919-15.455,15.455
	c0,8.535,6.919,15.455,15.455,15.455c8.535,0,15.454-6.919,15.454-15.455C363.86,376.692,356.941,369.773,348.406,369.773z"/>
<g>
</g>
<g>
</g>
<g>
</g>
<g>
</g>
<g>
</g>
<g>
</g>
<g>
</g>
<g>
</g>
<g>
</g>
<g>
</g>
<g>
</g>
<g>
</g>
<g>
</g>
<g>
</g>
<g>
</g>
</svg>
