<?xml version="1.0" encoding="iso-8859-1"?>
<!-- Generator: Adobe Illustrator 19.0.0, SVG Export Plug-In . SVG Version: 6.00 Build 0)  -->
<svg version="1.1" id="Capa_1" xmlns="http://www.w3.org/2000/svg" xmlns:xlink="http://www.w3.org/1999/xlink" x="0px" y="0px"
	 viewBox="0 0 512 512" style="enable-background:new 0 0 512 512;" xml:space="preserve">
<rect x="347" y="53" style="fill:#AEADB3;" width="30" height="60"/>
<rect x="438" y="213" style="fill:#57555C;" width="30" height="60"/>
<polygon style="fill:#715539;" points="377,468 171,468 171,403 201,403 201,438 347,438 347,243 377,243 "/>
<polygon style="fill:#A17852;" points="468,512 121,512 121,403 151,403 151,482 438,482 438,403 468,403 "/>
<path style="fill:#FFDB2D;" d="M309,418H19V0h290V418z"/>
<rect x="164" style="fill:#FEC000;" width="145" height="418"/>
<path style="fill:#FFF5CB;" d="M259,178H69V62.605l9.733-3.65c54.984-20.619,115.549-20.619,170.533,0l9.733,3.65V178H259z"/>
<path style="fill:#C8C6CD;" d="M100.36,346.64c-35.091-35.091-35.091-92.188,0-127.279s92.188-35.091,127.279,0
	s35.091,92.188,0,127.279S135.451,381.73,100.36,346.64z"/>
<path style="fill:#49BBEE;" d="M402,258h-80V98h80V258z"/>
<path style="fill:#EE2500;" d="M493,418h-80V258h80V418z"/>
<path style="fill:#FFDBA9;" d="M249.267,58.955C221.774,48.646,192.887,43.491,164,43.491V178h95V62.605L249.267,58.955z"/>
<polygon style="fill:#FF4F19;" points="146.124,99.735 119.876,114.265 155.147,178 189.435,178 "/>
<polygon style="fill:#EE2500;" points="164,178 189.435,178 164,132.038 "/>
<g>
	<path style="fill:#AEADB3;" d="M227.64,219.36L100.36,346.64c35.091,35.091,92.188,35.091,127.279,0S262.73,254.451,227.64,219.36z
		"/>
	
		<rect x="149.003" y="246.997" transform="matrix(-0.7071 -0.7071 0.7071 -0.7071 80.5684 597.365)" style="fill:#AEADB3;" width="30" height="69.998"/>
</g>
<rect x="161.802" y="252.296" transform="matrix(-0.7071 -0.7071 0.7071 -0.7071 85.8681 610.1594)" style="fill:#57555C;" width="15" height="69.999"/>
<g>
</g>
<g>
</g>
<g>
</g>
<g>
</g>
<g>
</g>
<g>
</g>
<g>
</g>
<g>
</g>
<g>
</g>
<g>
</g>
<g>
</g>
<g>
</g>
<g>
</g>
<g>
</g>
<g>
</g>
</svg>
