<?xml version="1.0" encoding="iso-8859-1"?>
<!-- Generator: Adobe Illustrator 19.0.0, SVG Export Plug-In . SVG Version: 6.00 Build 0)  -->
<svg version="1.1" id="Layer_1" xmlns="http://www.w3.org/2000/svg" xmlns:xlink="http://www.w3.org/1999/xlink" x="0px" y="0px"
	 viewBox="0 0 512 512" style="enable-background:new 0 0 512 512;" xml:space="preserve">
<path style="fill:#615349;" d="M495.304,439.652c-9.217,0-16.696-7.479-16.696-16.696v-16.696h-61.217
	c-9.223,0-16.696-7.479-16.696-16.696c0-9.217,7.473-16.696,16.696-16.696h77.913c9.217,0,16.696,7.479,16.696,16.696v33.391
	C512,432.174,504.521,439.652,495.304,439.652z"/>
<path style="fill:#FF6243;" d="M350.609,38.957H83.478C37.375,38.957,0,76.331,0,122.435v267.13c0,9.22,7.475,16.696,16.696,16.696
	h417.391V122.435C434.087,76.331,396.712,38.957,350.609,38.957z"/>
<path style="fill:#FF3501;" d="M350.609,38.957H217.043v367.304h217.043V122.435C434.087,76.331,396.712,38.957,350.609,38.957z"/>
<path style="fill:#615349;" d="M317.217,139.13H116.87c-9.223,0-16.696-7.479-16.696-16.696s7.473-16.696,16.696-16.696h200.348
	c9.223,0,16.696,7.479,16.696,16.696S326.44,139.13,317.217,139.13z"/>
<path style="fill:#594C43;" d="M317.217,105.739H217.043v33.391h100.174c9.223,0,16.696-7.479,16.696-16.696
	S326.44,105.739,317.217,105.739z"/>
<path style="fill:#C5DCFD;" d="M367.304,406.261H233.739V189.217c0-9.22,7.475-16.696,16.696-16.696h100.174
	c9.22,0,16.696,7.475,16.696,16.696V406.261z"/>
<path style="fill:#8FF0F0;" d="M183.652,272.696H83.478c-9.223,0-16.696-7.479-16.696-16.696v-66.783
	c0-9.217,7.473-16.696,16.696-16.696h100.174c9.223,0,16.696,7.479,16.696,16.696V256
	C200.348,265.217,192.875,272.696,183.652,272.696z"/>
<g>
	<path style="fill:#615349;" d="M150.261,473.043c-46.032,0-83.478-37.446-83.478-83.478s37.446-83.478,83.478-83.478
		s83.478,37.446,83.478,83.478S196.293,473.043,150.261,473.043z"/>
	<path style="fill:#615349;" d="M233.739,389.565c0-46.032-37.446-83.478-83.478-83.478v166.957
		C196.293,473.043,233.739,435.597,233.739,389.565z"/>
</g>
<path style="fill:#DBE9FD;" d="M150.261,339.478c-27.619,0-50.087,22.468-50.087,50.087c0,27.619,22.468,50.087,50.087,50.087
	s50.087-22.468,50.087-50.087C200.348,361.946,177.88,339.478,150.261,339.478z"/>
<path style="fill:#C5DCFD;" d="M200.348,389.565c0-27.619-22.468-50.087-50.087-50.087v100.174
	C177.88,439.652,200.348,417.184,200.348,389.565z"/>
<g>
	<circle style="fill:#615349;" cx="150.261" cy="389.565" r="16.696"/>
	<path style="fill:#615349;" d="M166.957,389.565c0-9.22-7.475-16.696-16.696-16.696v33.391
		C159.481,406.261,166.957,398.786,166.957,389.565z"/>
</g>
<g>
</g>
<g>
</g>
<g>
</g>
<g>
</g>
<g>
</g>
<g>
</g>
<g>
</g>
<g>
</g>
<g>
</g>
<g>
</g>
<g>
</g>
<g>
</g>
<g>
</g>
<g>
</g>
<g>
</g>
</svg>
