<?xml version="1.0" encoding="iso-8859-1"?>
<!-- Generator: Adobe Illustrator 19.0.0, SVG Export Plug-In . SVG Version: 6.00 Build 0)  -->
<svg version="1.1" id="Capa_1" xmlns="http://www.w3.org/2000/svg" xmlns:xlink="http://www.w3.org/1999/xlink" x="0px" y="0px"
	 viewBox="0 0 512 512" style="enable-background:new 0 0 512 512;" xml:space="preserve">
<circle style="fill:#FF328D;" cx="256" cy="256" r="256"/>
<path style="fill:#C40B5A;" d="M261.927,511.925C400.573,508.774,512,395.403,512,256c0-8.143-0.398-16.192-1.141-24.141L388,109
	l-26.147,27.353L284.5,59l-147,155l85.003,85.003L131.54,355.5l78.919,78.919l-16.664,9.374L261.927,511.925z"/>
<rect x="235.5" y="59" style="fill:#AB6A50;" width="49" height="388.5"/>
<rect x="255.95" y="59" style="fill:#854830;" width="28.548" height="388.5"/>
<polygon style="fill:#7A3817;" points="388,214 137.5,214 84.04,160.5 137.5,109 388,109 "/>
<rect x="255.95" y="109" style="fill:#5D2307;" width="132.05" height="105"/>
<polygon style="fill:#7A3817;" points="131.54,250.5 382.04,250.5 435.5,304 382.04,355.5 131.54,355.5 "/>
<polygon style="fill:#5D2307;" points="435.5,304 382.04,250.5 255.952,250.5 255.952,355.5 382.04,355.5 "/>
<path style="fill:#65E1BA;" d="M314.665,455c12.611,0,22.835-10.224,22.835-22.835c0-12.612-10.224-22.835-22.835-22.835
	c-2.981,0-5.825,0.577-8.435,1.616c-1.154-20.065-17.786-35.981-38.14-35.981c-14.095,0-26.399,7.638-33.022,18.996
	c-4.546-2.311-9.686-3.621-15.135-3.621c-18.48,0-33.461,14.981-33.461,33.461s14.981,31.2,33.461,31.2h94.732V455z"/>
<path style="fill:#00CE8E;" d="M314.665,409.33c-2.98,0-5.825,0.577-8.435,1.616c-1.154-20.065-17.786-35.981-38.14-35.981
	c-4.246,0-8.324,0.704-12.138,1.983V455h58.713c12.611,0,22.835-10.224,22.835-22.835C337.5,419.553,327.276,409.33,314.665,409.33z
	"/>
<g>
</g>
<g>
</g>
<g>
</g>
<g>
</g>
<g>
</g>
<g>
</g>
<g>
</g>
<g>
</g>
<g>
</g>
<g>
</g>
<g>
</g>
<g>
</g>
<g>
</g>
<g>
</g>
<g>
</g>
</svg>
