<?xml version="1.0" encoding="iso-8859-1"?>
<!-- Generator: Adobe Illustrator 19.0.0, SVG Export Plug-In . SVG Version: 6.00 Build 0)  -->
<svg version="1.1" id="Layer_1" xmlns="http://www.w3.org/2000/svg" xmlns:xlink="http://www.w3.org/1999/xlink" x="0px" y="0px"
	 viewBox="0 0 512 512" style="enable-background:new 0 0 512 512;" xml:space="preserve">
<polygon style="fill:#FF7671;" points="307,73.5 282,73.5 257,58.5 282,43.5 307,43.5 "/>
<path style="fill:#FF976F;" d="M381,504.5h-30l-30.4-40H341C363.09,464.5,381,482.41,381,504.5z"/>
<path style="fill:#FFB96C;" d="M320.6,464.5c16.79,0,30.4,17.91,30.4,40H131c0-22.09,17.91-40,40-40h21.1l63.9-20l63.9,20H320.6z"/>
<path style="fill:#FFDA69;" d="M289.9,464.5h-97.8c20.32-12.24,33.9-34.52,33.9-60l53.9-20L289.9,464.5z"/>
<g>
	<path style="fill:#FFB96C;" d="M319.9,464.5h-30c-10.78-12.24-17.98-34.52-17.98-60l7.98-20l6.1,20
		C286,429.98,299.58,452.26,319.9,464.5z"/>
	<path style="fill:#FFB96C;" d="M256,169.5l1.23,204.99C325.7,373.84,381,318.13,381,249.5v-50L256,169.5z"/>
</g>
<path style="fill:#FFDA69;" d="M351,199.5v50c0,68.5-41.87,124.12-93.77,124.99c-0.41,0.01-0.82,0.01-1.23,0.01
	c-69.04,0-125-55.96-125-125v-50l125-30L351,199.5z"/>
<g>
	<polygon style="fill:#FF976F;" points="271,43.5 271,7.5 241,7.5 241,43.5 205,43.5 205,73.5 241,73.5 241,149.5 271,149.5 
		271,73.5 282,73.5 282,43.5 	"/>
	<path style="fill:#FF976F;" d="M356.74,162.72l-7.51-3.22l-93.23-20l95,60h30C381,183,371.01,168.83,356.74,162.72z"/>
</g>
<g>
	<path style="fill:#FFB96C;" d="M351,199.5H131c0-16.5,9.99-30.67,24.26-36.78l7.51-3.22l93.23-20l70.85,20l5.71,3.22
		C343.4,168.83,351,183,351,199.5z"/>
	<path style="fill:#FFB96C;" d="M319.23,129.5c16.56,0,30,13.43,30,30h-22.38h-7.62l-20.35-30H319.23z"/>
</g>
<path style="fill:#FFDA69;" d="M319.23,159.5H162.77c0-16.57,13.44-30,30-30h106.11C310.12,129.5,319.23,142.93,319.23,159.5z"/>
<path style="fill:#FF976F;" d="M286,364.5h-30v40h30c11.05,0,20-8.95,20-20S297.05,364.5,286,364.5z"/>
<path style="fill:#FFB96C;" d="M256,364.5c11.05,0,20,8.95,20,20s-8.95,20-20,20h-30c-11.05,0-20-8.95-20-20s8.95-20,20-20H256z"/>
<g>
	<path style="fill:#FF976F;" d="M381,512H131c-4.142,0-7.5-3.358-7.5-7.5s3.358-7.5,7.5-7.5h250c4.142,0,7.5,3.358,7.5,7.5
		S385.142,512,381,512z"/>
	<path style="fill:#FF976F;" d="M381,207H131c-4.142,0-7.5-3.358-7.5-7.5s3.358-7.5,7.5-7.5h250c4.142,0,7.5,3.358,7.5,7.5
		S385.142,207,381,207z"/>
</g>
<g>
	<circle style="fill:#FFB96C;" cx="326" cy="229.5" r="7.5"/>
	<circle style="fill:#FFB96C;" cx="296" cy="259.5" r="7.5"/>
</g>
<g>
	<path style="fill:#FF7671;" d="M271,15h-30c-4.142,0-7.5-3.358-7.5-7.5S236.858,0,241,0h30c4.142,0,7.5,3.358,7.5,7.5
		S275.142,15,271,15z"/>
	<path style="fill:#FF7671;" d="M205,81c-4.142,0-7.5-3.358-7.5-7.5v-30c0-4.142,3.358-7.5,7.5-7.5s7.5,3.358,7.5,7.5v30
		C212.5,77.642,209.142,81,205,81z"/>
	<path style="fill:#FF7671;" d="M307,81c-4.142,0-7.5-3.358-7.5-7.5v-30c0-4.142,3.358-7.5,7.5-7.5s7.5,3.358,7.5,7.5v30
		C314.5,77.642,311.142,81,307,81z"/>
</g>
<g>
</g>
<g>
</g>
<g>
</g>
<g>
</g>
<g>
</g>
<g>
</g>
<g>
</g>
<g>
</g>
<g>
</g>
<g>
</g>
<g>
</g>
<g>
</g>
<g>
</g>
<g>
</g>
<g>
</g>
</svg>
